<svg xmlns="http://www.w3.org/2000/svg" xmlns:xlink="http://www.w3.org/1999/xlink" class="" app-context="doc-2d" x="0px" y="0px" width="842" height="595" jvs-fullPath="gdrive/background2.svg"><title/><desc/><defs/><g id="jvs-guides" transform="matrix(1 0 0 1 0 0)"/><g id="jvs-content" enable-background="new"><g transform="matrix(1,0,0,1,0,0)" name="Layer" jvs-layer-color="#fb0094" class="jvs-layer"/><g transform="matrix(1,0,0,1,0,0)" name="Layer 2" jvs-layer-color="#ffff00" class="jvs-layer selected"><rect transform="matrix(1,0,0,1,-63.665340423583984,-34.19717025756836)" width="993.943416595459" height="676.7055320739746" fill="rgb(75,45,94)" stroke="rgb(0,61,255)" stroke-width="1.00" stroke-linecap="butt" stroke-linejoin="miter" opacity="1" selected="true" fill-opacity="1" stroke-opacity="1"/></g><g transform="matrix(1,0,0,1,0,0)" name="Layer 1" jvs-layer-color="#ff7f00" class="jvs-layer"><path d="M -227.53116844470787 -245.24455277251735 L 438.6396484375 361.5035400390625 L -422.1999153929496 -247.30453491210938 L -227.53116844470787 -245.24455277251735 Z" stroke-width="1" stroke="rgb(0,0,0)" fill="rgb(109,69,135)" transform="matrix(1 0 0 1 400.764 234.202)" stroke-linecap="bevel" stroke-linejoin="bevel" fill-opacity="1" stroke-opacity="0"/><path d="M -331.6778817015438 -74.2246171646072 L 513.7117004394531 344.0346984863281 L -332.70788048084023 66.88444519042969 L -331.6778817015438 -74.2246171646072 Z" stroke-width="1" stroke="rgb(0,0,0)" fill="rgb(109,69,135)" transform="matrix(1 0 0 1 325.692 251.671)" stroke-linecap="bevel" stroke-linejoin="bevel" fill-opacity="1" stroke-opacity="0"/><path d="M -328.7053170042782 219.36447890472874 L 513.7117004394531 344.0346984863281 L -326.645319445684 345.0236587524414 L -328.7053170042782 219.36447890472874 Z" stroke-width="1" stroke="rgb(0,0,0)" fill="rgb(109,69,135)" transform="matrix(1 0 0 1 325.81 251.63)" stroke-linecap="bevel" stroke-linejoin="bevel" fill-opacity="1" stroke-opacity="0"/><path d="M 147.2688956422062 -240.0534974746658 L 438.6396484375 361.5035400390625 L -19.589958651616598 -242.11349487304688 L 147.2688956422062 -240.0534974746658 Z" stroke-width="1" stroke="rgb(0,0,0)" fill="rgb(109,69,135)" transform="matrix(1 0 0 1 401.882 235.191)" stroke-linecap="bevel" stroke-linejoin="bevel" fill-opacity="1" stroke-opacity="0"/><path d="M 305.88785316173744 -242.11349503325954 L 438.6396484375 361.5035400390625 L 439.78699256603477 -241.08349609375 L 305.88785316173744 -242.11349503325954 Z" stroke-width="1" stroke="rgb(0,0,0)" fill="rgb(109,69,135)" transform="matrix(1 0 0 1 402.912 235.191)" stroke-linecap="bevel" stroke-linejoin="bevel" fill-opacity="1" stroke-opacity="0"/></g></g></svg>